<svg t="1703228418886" class="icon" viewBox="0 0 1024 1024" version="1.1" xmlns="http://www.w3.org/2000/svg" p-id="7281" data-spm-anchor-id="a313x.collections_detail.0.i80.4cad3a81p2bztl" width="200" height="200"><path d="M768 896h-512a128 128 0 0 1-128-128v-512a128 128 0 0 1 128-128h384v256h256v384a128 128 0 0 1-128 128z m-512-704a64 64 0 0 0-64 64v512a64 64 0 0 0 64 64h512a64 64 0 0 0 64-64v-352h-224v-224z" fill="#fa711e" p-id="7282" data-spm-anchor-id="a313x.collections_detail.0.i79.4cad3a81p2bztl" class="selected"></path><path d="M608 416v-288h64l224 224v64z" fill="#fa711e" opacity=".2" p-id="7283" data-spm-anchor-id="a313x.collections_detail.0.i77.4cad3a81p2bztl" class="selected"></path><path d="M864 384v-18.784l-205.216-205.216H640v224h224m32 32h-288v-288h64l224 224z" fill="#fa711e" p-id="7284" data-spm-anchor-id="a313x.collections_detail.0.i78.4cad3a81p2bztl" class="selected"></path><path d="M288 480m32 0l256 0q32 0 32 32l0 0q0 32-32 32l-256 0q-32 0-32-32l0 0q0-32 32-32Z" fill="#FE9C23" p-id="7285"></path><path d="M288 640m32 0l256 0q32 0 32 32l0 0q0 32-32 32l-256 0q-32 0-32-32l0 0q0-32 32-32Z" fill="#fa711e" p-id="7286" data-spm-anchor-id="a313x.collections_detail.0.i81.4cad3a81p2bztl" class="selected"></path></svg>