<svg t="1708246600483" class="icon" viewBox="0 0 1067 1024" version="1.1" xmlns="http://www.w3.org/2000/svg" p-id="10054" id="mx_n_1708246600485" width="200" height="200"><path d="M260.89172 1024a93.175614 93.175614 0 0 1-91.001517-108.704883l43.947832-255.922354L27.952684 479.07795A93.175614 93.175614 0 0 1 79.199272 321.455869l257.009403-37.425538L450.348802 51.557173a93.175614 93.175614 0 0 1 165.852593 0l114.916591 232.939036 256.85411 36.95966a92.399151 92.399151 0 0 1 51.246588 157.622081l-186.351229 181.381862L897.281165 916.226873a93.175614 93.175614 0 0 1-134.172885 97.523809l-229.833181-120.817713-229.212011 120.351835a93.175614 93.175614 0 0 1-43.171368 10.715196zM532.809221 93.175614L419.290264 326.11465a93.175614 93.175614 0 0 1-69.571125 50.625417L93.175614 413.544434l186.351229 180.139521a93.175614 93.175614 0 0 1 26.55505 81.839248L261.668183 931.756142l228.901426-121.594177a91.77798 91.77798 0 0 1 86.03215 0l229.833182 120.817713L760.934183 675.523203a93.175614 93.175614 0 0 1 26.55505-81.839248l186.351228-181.226569-256.232939-36.183197A93.175614 93.175614 0 0 1 647.881104 326.11465z" fill="#f58d23" p-id="10055" data-spm-anchor-id="a313x.search_index.0.i20.662f3a81b4giBD" class=""></path><path d="M684.064301 554.70549a48.296027 48.296027 0 0 1-6.677586 0l-128.271762-18.635123L491.81195 419.290264a46.587807 46.587807 0 0 1 83.547468-41.307856l35.717318 72.366394 79.665151 11.646952a46.587807 46.587807 0 0 1-6.677586 93.175614z" fill="#f58d23" p-id="10056" data-spm-anchor-id="a313x.search_index.0.i21.662f3a81b4giBD" class=""></path></svg>