<svg t="1703228283455" class="icon" viewBox="0 0 1024 1024" version="1.1" xmlns="http://www.w3.org/2000/svg" p-id="4612" data-spm-anchor-id="a313x.collections_detail.0.i45.4cad3a81p2bztl" width="200" height="200"><path d="M96 608v-256a256.32 256.32 0 0 1 256-256h256a32 32 0 0 1 32 32 32 32 0 0 1-32 32h-256a192.224 192.224 0 0 0-192 192v256a32 32 0 0 1-32 32 32 32 0 0 1-32-32z" fill="#fa711e" p-id="4613" data-spm-anchor-id="a313x.collections_detail.0.i48.4cad3a81p2bztl" class="selected"></path><path d="M352 288a64 64 0 0 0-64 64v416a64 64 0 0 0 64 64h416a64 64 0 0 0 64-64V352a64 64 0 0 0-64-64H352m0-64h416a128 128 0 0 1 128 128v416a128 128 0 0 1-128 128H352a128 128 0 0 1-128-128V352a128 128 0 0 1 128-128z" fill="#fa711e" p-id="4614" data-spm-anchor-id="a313x.collections_detail.0.i46.4cad3a81p2bztl" class="selected"></path><path d="M352 384m32 0l288 0q32 0 32 32l0 0q0 32-32 32l-288 0q-32 0-32-32l0 0q0-32 32-32Z" fill="#FE9C23" p-id="4615"></path><path d="M352 512m32 0l160 0q32 0 32 32l0 0q0 32-32 32l-160 0q-32 0-32-32l0 0q0-32 32-32Z" fill="#fa711e" p-id="4616" data-spm-anchor-id="a313x.collections_detail.0.i47.4cad3a81p2bztl" class="selected"></path></svg>