<svg t="1704347931232" class="icon" viewBox="0 0 1139 1024" version="1.1" xmlns="http://www.w3.org/2000/svg" p-id="1178" width="200" height="200"><path d="M459.003819 1023.998978a39.272273 39.272273 0 0 1-25.548877-9.197596 39.856248 39.856248 0 0 1-5.255769-56.353522l127.59839-154.023228a40.294228 40.294228 0 0 1 30.804646-14.599358H963.557635a95.917783 95.917783 0 0 0 95.917783-95.771789V175.922265A96.063776 96.063776 0 0 0 963.557635 80.004482H175.192297a96.063776 96.063776 0 0 0-95.917782 95.917783v518.277213A95.917783 95.917783 0 0 0 175.192297 789.971267h98.25368a40.002241 40.002241 0 0 1 0 80.004483h-97.523712a175.922265 175.922265 0 0 1-175.192297-175.192297V175.922265A176.068259 176.068259 0 0 1 175.922265 0H963.557635a176.068259 176.068259 0 0 1 175.192298 175.922265v518.277213a175.922265 175.922265 0 0 1-175.192298 175.192298H605.435381l-115.626916 139.569863a39.710254 39.710254 0 0 1-30.804646 15.037339z" fill="#ff5e00" p-id="1179"></path><path d="M843.404918 355.348376H323.083795a40.002241 40.002241 0 1 1 0-80.004482h520.321123a40.002241 40.002241 0 0 1 0 80.004482zM643.101725 572.440832H323.083795a40.002241 40.002241 0 1 1 0-80.004483h320.01793a40.002241 40.002241 0 1 1 0 80.004483z" fill="#FF4B9D" p-id="1180"></path></svg>