<svg t="1703228177625" class="icon" viewBox="0 0 1024 1024" version="1.1" xmlns="http://www.w3.org/2000/svg" p-id="3900" id="mx_n_1703228177626" data-spm-anchor-id="a313x.collections_detail.0.i37.4cad3a81p2bztl" width="200" height="200"><path d="M320.192 288a192 192 0 1 0 192-192 192 192 0 0 0-192 192z" fill="#fa711e" opacity=".2" p-id="3901" data-spm-anchor-id="a313x.collections_detail.0.i36.4cad3a81p2bztl" class="selected"></path><path d="M512.192 64a224 224 0 1 0 224 224 224 224 0 0 0-224-224z m0 64a160 160 0 1 1-160 160 160 160 0 0 1 160-160z m290.08 416H222.112a128 128 0 0 0-126.912 111.456l-16.64 128A128 128 0 0 0 205.568 928h613.44a128 128 0 0 0 126.912-144.512l-16.64-128A128 128 0 0 0 802.272 544z m-580.16 64h580.16a64 64 0 0 1 63.456 55.744l16.64 128A64 64 0 0 1 818.912 864H205.568a64 64 0 0 1-63.456-72.256l16.64-128A64 64 0 0 1 222.112 608z" fill="#fa711e" p-id="3902" data-spm-anchor-id="a313x.collections_detail.0.i38.4cad3a81p2bztl" class="selected"></path><path d="M512.192 640a28.288 28.288 0 0 1 32 32v96a28.288 28.288 0 0 1-32 32 28.288 28.288 0 0 1-32-32v-96a28.288 28.288 0 0 1 32-32z" fill="#FF9600" p-id="3903"></path></svg>