<svg t="1703228052269" class="icon" viewBox="0 0 1024 1024" version="1.1" xmlns="http://www.w3.org/2000/svg" p-id="3140" id="mx_n_1703228052270" width="200" height="200"><path d="M512 96a411.424 411.424 0 0 1 276.608 106.368 431.52 431.52 0 0 1 137.216 266.848A372.416 372.416 0 0 1 928 512a32 32 0 0 1-32 32 32 32 0 0 1-32-32 320.192 320.192 0 0 0-1.568-33.92v-0.672A352 352 0 0 0 160 512a358.4 358.4 0 0 0 188.032 306.72 381.76 381.76 0 0 0 88.64 35.52h0.288a323.2 323.2 0 0 0 75.04 9.76 32 32 0 0 1 32 32 32 32 0 0 1-32 32 382.784 382.784 0 0 1-89.216-11.296 441.152 441.152 0 0 1-104.832-41.504 429.408 429.408 0 0 1-156.448-145.6 402.624 402.624 0 0 1-65.504-217.6 416 416 0 0 1 416-416z" fill="#fa711e" p-id="3141" data-spm-anchor-id="a313x.collections_detail.0.i19.4cad3a81p2bztl" class="selected"></path><path d="M704 640m32 0l192 0q32 0 32 32l0 0q0 32-32 32l-192 0q-32 0-32-32l0 0q0-32 32-32Z" fill="#FE9C23" p-id="3142"></path><path d="M608 800m32 0l288 0q32 0 32 32l0 0q0 32-32 32l-288 0q-32 0-32-32l0 0q0-32 32-32Z" fill="#4078FD" p-id="3143"></path><path d="M640 800h288a32 32 0 0 1 0 64h-288a32 32 0 0 1 0-64z" fill="#fa711e" p-id="3144" data-spm-anchor-id="a313x.collections_detail.0.i20.4cad3a81p2bztl" class="selected"></path><path d="M672 576h-192a32 32 0 0 1-32-32v-192a32 32 0 0 1 32-32 32 32 0 0 1 32 32v160h160a32 32 0 0 1 0 64z" fill="#fa711e" p-id="3145" data-spm-anchor-id="a313x.collections_detail.0.i21.4cad3a81p2bztl" class="selected"></path></svg>